<?xml version="1.0" encoding="UTF-8"?>
<svg xmlns="http://www.w3.org/2000/svg" viewBox="0 0 1000 1000">
  <defs>
    <style>
      .logo { fill: #f5f5f5; stroke-width: 0; }
    </style>
  </defs>
  <g>
    <g>
      <path class="logo" d="m419.39,429.29c2.57,0,4.54.58,5.91,1.73,1.37,1.15,2.35,2.58,2.96,4.29.6,1.71.96,3.62,1.09,5.74.12,2.12.18,4.15.18,6.09v91.32c0,1.29-.28,2.42-.84,3.39-.56.97-1.45,1.45-2.65,1.45h-10.38c-1.21,0-2.07-.48-2.59-1.45-.52-.97-.78-2.1-.78-3.39v-83.29h-.6l-20.99,58.94c-.72,2.12-1.49,4.18-2.29,6.16-.81,1.98-1.81,3.74-3.02,5.26-1.21,1.52-2.69,2.75-4.46,3.67-1.77.92-4.02,1.38-6.76,1.38-1.93,0-3.66-.21-5.19-.62-1.53-.42-2.94-1.2-4.22-2.35-1.29-1.15-2.51-2.81-3.68-4.98-1.17-2.17-2.35-5-3.56-8.51l-20.99-58.94h-.6v83.29c0,1.29-.26,2.42-.78,3.39-.52.97-1.39,1.45-2.59,1.45h-10.37c-1.21,0-2.09-.48-2.65-1.45-.56-.97-.84-2.1-.84-3.39v-91.32c0-2.21.08-4.4.24-6.57.16-2.17.56-4.08,1.21-5.74.64-1.66,1.65-3,3.02-4.01,1.37-1.01,3.3-1.52,5.79-1.52h11.1c2.17,0,3.9.3,5.19.9,1.29.6,2.33,1.48,3.14,2.63.8,1.15,1.45,2.54,1.93,4.15.48,1.61,1.09,3.39,1.81,5.33l21.47,61.71h1.33l21.71-61.71c.72-1.94,1.33-3.71,1.81-5.33.48-1.61,1.12-2.97,1.93-4.08.8-1.11,1.83-1.98,3.08-2.63,1.25-.64,2.96-.97,5.13-.97h10.86Z"/>
      <path class="logo" d="m675.36,537.21c.63.92.95,1.75.95,2.49,0,2.4-1.04,3.6-3.11,3.6h-15.67c-1.44,0-2.41-.21-2.9-.62-.5-.41-1.1-1.18-1.82-2.28l-27.28-39.57-27.42,39.71c-.72,1.02-1.37,1.73-1.96,2.14-.59.42-1.51.62-2.77.62h-14.86c-1.98,0-2.97-1.11-2.97-3.32,0-.92.31-1.84.95-2.77l37.14-53.82-33.5-48.01c-.54-.83-.81-1.75-.81-2.77,0-2.21.99-3.32,2.97-3.32h15.67c1.17,0,2.09.21,2.77.62.67.42,1.33,1.13,1.96,2.14l23.91,35.42,25.39-35.42c.72-1.01,1.37-1.73,1.96-2.14.58-.41,1.51-.62,2.77-.62h14.86c2.07,0,3.11,1.11,3.11,3.32,0,1.11-.32,2.03-.95,2.77l-34.57,48.84,36.2,52.99Z"/>
      <path class="logo" d="m545.91,429.29c1.24,0,2.13.46,2.67,1.38.54.92.81,2.03.81,3.32v66c0,6.37-.37,12.2-1.12,17.5-.75,5.31-2.22,9.87-4.41,13.7-2.2,3.83-5.3,6.8-9.32,8.92-4.02,2.12-9.3,3.18-15.85,3.18h-27.97c-6.55,0-11.83-1.06-15.85-3.18-4.02-2.12-7.13-5.1-9.32-8.92-2.2-3.83-3.67-8.39-4.41-13.7-.75-5.3-1.12-11.14-1.12-17.5v-66c0-1.29.27-2.4.81-3.32.54-.92,1.47-1.38,2.8-1.38h11.31c1.24,0,2.13.46,2.67,1.38.54.92.81,2.03.81,3.32v68.21c0,2.86.08,5.54.25,8.03.16,2.49.66,4.68,1.49,6.57.83,1.89,2.11,3.37,3.85,4.43,1.74,1.06,4.18,1.59,7.33,1.59h26.85c3.15,0,5.59-.53,7.33-1.59,1.74-1.06,3-2.51,3.79-4.36.78-1.84,1.26-4.03,1.43-6.57.16-2.53.25-5.23.25-8.09v-68.21c0-1.29.27-2.4.81-3.32.54-.92,1.43-1.38,2.67-1.38h11.44Z"/>
    </g>
    <path class="logo" d="m758.22,305.95v-8.3l-74.78-139.64c-10.98-20.5-40.37-20.51-51.36-.01l-110.89,206.87c-1.24,2.32.14,5.17,2.73,5.63,7.18,1.28,14.16,3.12,20.91,5.48,1.82.64,3.82-.11,4.73-1.81l104.78-195.47c1.46-2.73,5.37-2.72,6.83,0l67.69,126.41c-.02.28-.04.56-.04.84v261.97c0,58.73-22.25,112.36-58.76,152.92l-68.28-127.51c-6.69,7.6-14.21,14.45-22.43,20.4l66.01,123.28c.87,1.63,2.02,3.19,3.37,4.65-41.59,35.66-96.07,56.69-155.39,55-53.88-1.54-102.83-21.9-140.99-54.6l68.65-128.07c-8.23-5.92-15.77-12.72-22.48-20.29l-68.05,126.94c-36.91-41.23-59.3-95.83-59.3-155.17v-259.18l71.81-133.96,109.56,204.59c9.36-3.5,19.21-5.97,29.42-7.33l-116.71-217.95c-9.52-17.78-35-17.78-44.53,0l-78.95,147.27v266.57c0,140.69,111.58,257.41,252.24,260.6,145.1,3.3,264.2-113.78,264.2-258.15v-261.97h0Z"/>
  </g>
</svg>
