<svg width="1080" height="1080" viewBox="0 0 1080 1080" fill="none" xmlns="http://www.w3.org/2000/svg">
<rect width="1080" height="1080" rx="250" fill="white"/>
<path d="M774.875 306C788.208 306 798.417 308.708 805.5 314.125C812.583 319.125 817.583 325.583 820.5 333.5C823.833 341 825.708 349.542 826.125 359.125C826.958 368.708 827.375 377.875 827.375 386.625V799.125C827.375 804.958 825.917 810.167 823 814.75C820.083 818.917 815.5 821 809.25 821H755.5C749.25 821 744.667 818.917 741.75 814.75C739.25 810.167 738 804.958 738 799.125V422.875H734.875L626.125 689.125C622.375 698.708 618.417 708.083 614.25 717.25C610.083 726 604.875 733.917 598.625 741C592.375 747.667 584.667 753.083 575.5 757.25C566.333 761.417 554.667 763.5 540.5 763.5C530.5 763.5 521.542 762.667 513.625 761C505.708 758.917 498.417 755.375 491.75 750.375C485.083 744.958 478.625 737.458 472.375 727.875C466.542 717.875 460.5 704.958 454.25 689.125L345.5 422.875H342.375V799.125C342.375 804.958 340.917 810.167 338 814.75C335.5 818.917 331.125 821 324.875 821H271.125C264.875 821 260.292 818.917 257.375 814.75C254.458 810.167 253 804.958 253 799.125V386.625C253 376.625 253.417 366.833 254.25 357.25C255.083 347.25 257.167 338.5 260.5 331C263.833 323.5 269.042 317.458 276.125 312.875C283.208 308.292 293.208 306 306.125 306H363.625C374.875 306 383.833 307.458 390.5 310.375C397.167 312.875 402.583 316.833 406.75 322.25C410.917 327.25 414.25 333.5 416.75 341C419.25 348.083 422.375 356 426.125 364.75L537.375 643.5H544.25L656.75 364.75C660.5 356 663.625 348.083 666.125 341C668.625 333.5 671.958 327.25 676.125 322.25C680.292 317.25 685.5 313.292 691.75 310.375C698.417 307.458 707.375 306 718.625 306H774.875Z" fill="#0A2B32"/>
</svg>
