<svg width="463" height="231" viewBox="0 0 463 231" fill="none" xmlns="http://www.w3.org/2000/svg">
<path d="M166.833 53.6667C170.389 53.6667 173.111 54.3889 175 55.8333C176.889 57.1667 178.222 58.8889 179 61C179.889 63 180.389 65.2778 180.5 67.8333C180.722 70.3889 180.833 72.8333 180.833 75.1667V185.167C180.833 186.722 180.444 188.111 179.667 189.333C178.889 190.444 177.667 191 176 191H161.667C160 191 158.778 190.444 158 189.333C157.333 188.111 157 186.722 157 185.167V84.8333H156.167L127.167 155.833C126.167 158.389 125.111 160.889 124 163.333C122.889 165.667 121.5 167.778 119.833 169.667C118.167 171.444 116.111 172.889 113.667 174C111.222 175.111 108.111 175.667 104.333 175.667C101.667 175.667 99.2778 175.444 97.1667 175C95.0556 174.444 93.1111 173.5 91.3333 172.167C89.5556 170.722 87.8333 168.722 86.1667 166.167C84.6111 163.5 83 160.056 81.3333 155.833L52.3333 84.8333H51.5V185.167C51.5 186.722 51.1111 188.111 50.3333 189.333C49.6667 190.444 48.5 191 46.8333 191H32.5C30.8333 191 29.6111 190.444 28.8333 189.333C28.0556 188.111 27.6667 186.722 27.6667 185.167V75.1667C27.6667 72.5 27.7778 69.8889 28 67.3333C28.2222 64.6667 28.7778 62.3333 29.6667 60.3333C30.5556 58.3333 31.9444 56.7222 33.8333 55.5C35.7222 54.2778 38.3889 53.6667 41.8333 53.6667H57.1667C60.1667 53.6667 62.5556 54.0556 64.3333 54.8333C66.1111 55.5 67.5556 56.5556 68.6667 58C69.7778 59.3333 70.6667 61 71.3333 63C72 64.8889 72.8333 67 73.8333 69.3333L103.5 143.667H105.333L135.333 69.3333C136.333 67 137.167 64.8889 137.833 63C138.5 61 139.389 59.3333 140.5 58C141.611 56.6667 143 55.6111 144.667 54.8333C146.444 54.0556 148.833 53.6667 151.833 53.6667H166.833ZM307.573 53.6667C309.24 53.6667 310.406 54.2222 311.073 55.3333C311.851 56.4444 312.24 57.7778 312.24 59.3333V138.833C312.24 146.5 311.74 153.556 310.74 160C309.74 166.333 307.74 171.833 304.74 176.5C301.851 181.056 297.684 184.611 292.24 187.167C286.906 189.722 279.851 191 271.073 191H233.573C224.795 191 217.684 189.722 212.24 187.167C206.906 184.611 202.74 181.056 199.74 176.5C196.851 171.833 194.906 166.333 193.906 160C192.906 153.556 192.406 146.5 192.406 138.833V59.3333C192.406 57.7778 192.74 56.4444 193.406 55.3333C194.184 54.2222 195.462 53.6667 197.24 53.6667H212.406C214.073 53.6667 215.24 54.2222 215.906 55.3333C216.684 56.4444 217.073 57.7778 217.073 59.3333V141.5C217.073 144.944 217.184 148.167 217.406 151.167C217.628 154.167 218.295 156.833 219.406 159.167C220.517 161.389 222.24 163.167 224.573 164.5C226.906 165.722 230.184 166.333 234.406 166.333H270.406C274.628 166.333 277.906 165.722 280.24 164.5C282.573 163.167 284.24 161.389 285.24 159.167C286.351 156.944 287.017 154.333 287.24 151.333C287.462 148.222 287.573 144.944 287.573 141.5V59.3333C287.573 57.7778 287.906 56.4444 288.573 55.3333C289.351 54.2222 290.573 53.6667 292.24 53.6667H307.573ZM440.456 183.667C441.234 184.778 441.622 185.778 441.622 186.667C441.622 189.556 440.345 191 437.789 191H418.456C416.678 191 415.456 190.778 414.789 190.333C414.234 189.778 413.511 188.833 412.622 187.5L378.956 139.833L345.122 187.667C344.234 188.889 343.4 189.778 342.622 190.333C341.956 190.778 340.845 191 339.289 191H320.956C318.511 191 317.289 189.667 317.289 187C317.289 185.889 317.678 184.778 318.456 183.667L364.289 118.833L322.956 61C322.289 60 321.956 58.8889 321.956 57.6667C321.956 55 323.178 53.6667 325.622 53.6667H344.956C346.4 53.6667 347.511 53.9444 348.289 54.5C349.178 54.9444 350.011 55.7778 350.789 57L380.289 99.6667L411.622 57C412.511 55.7778 413.289 54.9444 413.956 54.5C414.734 53.9444 415.9 53.6667 417.456 53.6667H435.789C438.345 53.6667 439.622 55 439.622 57.6667C439.622 59 439.234 60.1111 438.456 61L395.789 119.833L440.456 183.667Z" fill="white"/>
</svg>
